<svg xmlns="http://www.w3.org/2000/svg" viewBox="0 0 512 512" width="100%" height="100%">
  <defs>
    <linearGradient id="logo-grad" x1="0%" y1="0%" x2="100%" y2="100%">
      <stop offset="0%" stop-color="#00b4d8" />
      <stop offset="100%" stop-color="#9d4edd" />
    </linearGradient>
  </defs>
  <path d="M 180.30,390.82 L 177.89,393.22 L 177.89,395.62 L 175.49,398.03 L 173.09,395.62 L 168.28,395.62 L 163.47,400.43 L 161.07,398.03 L 153.86,398.03 L 153.86,405.24 L 156.26,407.64 L 161.07,407.64 L 161.07,405.24 L 163.47,402.83 L 168.28,402.83 L 170.68,405.24 L 175.49,400.43 L 185.10,400.43 L 185.10,393.22 L 182.70,390.82 Z M 201.93,386.01 L 197.12,390.82 L 194.72,388.41 L 192.31,388.41 L 189.91,390.82 L 189.91,395.62 L 192.31,398.03 L 194.72,398.03 L 197.12,395.62 L 197.12,393.22 L 199.52,390.82 L 201.93,393.22 L 209.14,393.22 L 209.14,388.41 L 206.73,386.01 Z M 213.94,381.20 L 213.94,388.41 L 218.75,388.41 L 221.15,386.01 L 221.15,383.61 L 218.75,381.20 Z M 103.39,126.45 L 100.99,128.86 L 100.99,280.27 L 98.58,282.67 L 98.58,285.07 L 96.18,287.48 L 93.78,287.48 L 91.37,289.88 L 88.97,289.88 L 86.57,292.28 L 84.16,292.28 L 81.76,294.69 L 79.36,294.69 L 64.94,309.10 L 62.53,309.10 L 62.53,311.51 L 55.32,318.72 L 55.32,321.12 L 50.52,325.93 L 50.52,330.73 L 45.71,335.54 L 45.71,340.35 L 40.90,345.15 L 40.90,349.96 L 43.31,352.36 L 38.50,357.17 L 38.50,361.98 L 40.90,364.38 L 40.90,366.78 L 38.50,369.19 L 38.50,376.40 L 40.90,378.80 L 43.31,378.80 L 45.71,381.20 L 40.90,386.01 L 40.90,398.03 L 48.11,405.24 L 57.73,405.24 L 62.53,400.43 L 64.94,402.83 L 64.94,407.64 L 67.34,410.04 L 69.74,410.04 L 72.15,412.45 L 74.55,412.45 L 76.95,410.04 L 79.36,410.04 L 81.76,407.64 L 84.16,410.04 L 84.16,412.45 L 86.57,412.45 L 88.97,414.85 L 91.37,412.45 L 93.78,412.45 L 93.78,410.04 L 96.18,407.64 L 98.58,410.04 L 98.58,412.45 L 100.99,414.85 L 105.79,414.85 L 110.60,410.04 L 113.00,410.04 L 115.41,412.45 L 122.62,412.45 L 122.62,410.04 L 125.02,407.64 L 129.83,412.45 L 134.63,412.45 L 139.44,407.64 L 141.84,407.64 L 144.25,410.04 L 146.65,410.04 L 149.05,407.64 L 149.05,400.43 L 146.65,400.43 L 144.25,398.03 L 139.44,402.83 L 137.04,402.83 L 134.63,400.43 L 129.83,400.43 L 125.02,405.24 L 122.62,402.83 L 120.21,402.83 L 117.81,400.43 L 110.60,407.64 L 108.20,405.24 L 108.20,402.83 L 98.58,402.83 L 98.58,405.24 L 96.18,407.64 L 93.78,405.24 L 93.78,402.83 L 91.37,400.43 L 86.57,400.43 L 81.76,405.24 L 79.36,402.83 L 79.36,400.43 L 76.95,398.03 L 67.34,398.03 L 64.94,395.62 L 64.94,386.01 L 60.13,381.20 L 57.73,381.20 L 55.32,378.80 L 50.52,378.80 L 48.11,376.40 L 50.52,373.99 L 50.52,371.59 L 45.71,366.78 L 45.71,364.38 L 50.52,359.57 L 50.52,357.17 L 48.11,354.77 L 48.11,352.36 L 50.52,349.96 L 50.52,342.75 L 55.32,337.94 L 55.32,333.14 L 57.73,330.73 L 57.73,325.93 L 74.55,309.10 L 74.55,306.70 L 79.36,301.90 L 81.76,301.90 L 88.97,294.69 L 91.37,294.69 L 98.58,287.48 L 100.99,289.88 L 100.99,321.12 L 105.79,321.12 L 110.60,316.31 L 110.60,313.91 L 125.02,299.49 L 125.02,297.09 L 139.44,282.67 L 139.44,280.27 L 153.86,265.85 L 156.26,268.25 L 156.26,273.06 L 225.96,273.06 L 228.36,275.46 L 230.77,275.46 L 242.78,287.48 L 242.78,289.88 L 245.19,292.28 L 245.19,311.51 L 242.78,313.91 L 242.78,316.31 L 240.38,318.72 L 240.38,321.12 L 228.36,333.14 L 225.96,333.14 L 223.56,335.54 L 218.75,335.54 L 216.35,337.94 L 103.39,337.94 L 100.99,340.35 L 100.99,373.99 L 103.39,376.40 L 105.79,376.40 L 108.20,378.80 L 110.60,376.40 L 113.00,378.80 L 182.70,378.80 L 185.10,376.40 L 189.91,376.40 L 192.31,378.80 L 197.12,378.80 L 199.52,376.40 L 228.36,376.40 L 230.77,373.99 L 237.98,373.99 L 240.38,371.59 L 242.78,371.59 L 245.19,369.19 L 249.99,369.19 L 252.40,366.78 L 254.80,366.78 L 259.60,361.98 L 262.01,361.98 L 276.43,347.56 L 276.43,345.15 L 278.83,342.75 L 278.83,340.35 L 281.23,337.94 L 281.23,335.54 L 283.64,333.14 L 283.64,330.73 L 286.04,328.33 L 288.44,330.73 L 290.85,328.33 L 290.85,325.93 L 295.65,321.12 L 300.46,321.12 L 302.86,318.72 L 302.86,313.91 L 305.27,311.51 L 307.67,313.91 L 314.88,313.91 L 314.88,311.51 L 317.28,309.10 L 317.28,306.70 L 319.69,304.30 L 324.49,309.10 L 324.49,311.51 L 331.70,318.72 L 331.70,321.12 L 336.51,325.93 L 336.51,328.33 L 338.91,330.73 L 338.91,333.14 L 336.51,335.54 L 334.11,335.54 L 326.90,342.75 L 324.49,342.75 L 319.69,347.56 L 317.28,347.56 L 312.48,352.36 L 310.07,352.36 L 307.67,354.77 L 305.27,354.77 L 300.46,359.57 L 298.06,359.57 L 293.25,364.38 L 290.85,364.38 L 288.44,366.78 L 286.04,366.78 L 283.64,369.19 L 281.23,369.19 L 278.83,371.59 L 276.43,371.59 L 274.02,373.99 L 271.62,373.99 L 269.22,376.40 L 266.81,376.40 L 264.41,378.80 L 262.01,378.80 L 259.60,381.20 L 257.20,381.20 L 254.80,383.61 L 249.99,383.61 L 247.59,386.01 L 245.19,386.01 L 242.78,388.41 L 240.38,388.41 L 237.98,390.82 L 233.17,390.82 L 230.77,393.22 L 228.36,393.22 L 225.96,395.62 L 221.15,395.62 L 218.75,398.03 L 213.94,398.03 L 211.54,400.43 L 206.73,400.43 L 204.33,402.83 L 199.52,402.83 L 197.12,405.24 L 189.91,405.24 L 187.51,407.64 L 182.70,407.64 L 180.30,410.04 L 173.09,410.04 L 170.68,412.45 L 163.47,412.45 L 161.07,414.85 L 151.46,414.85 L 149.05,417.25 L 141.84,417.25 L 139.44,419.66 L 127.42,419.66 L 125.02,422.06 L 120.21,422.06 L 117.81,424.46 L 127.42,424.46 L 129.83,422.06 L 156.26,422.06 L 158.67,419.66 L 170.68,419.66 L 173.09,417.25 L 180.30,417.25 L 182.70,414.85 L 199.52,414.85 L 201.93,412.45 L 209.14,412.45 L 211.54,410.04 L 216.35,410.04 L 218.75,407.64 L 228.36,407.64 L 230.77,405.24 L 237.98,405.24 L 240.38,402.83 L 245.19,402.83 L 247.59,400.43 L 254.80,400.43 L 257.20,398.03 L 262.01,398.03 L 264.41,395.62 L 269.22,395.62 L 271.62,393.22 L 276.43,393.22 L 278.83,390.82 L 283.64,390.82 L 286.04,388.41 L 288.44,388.41 L 290.85,386.01 L 295.65,386.01 L 298.06,383.61 L 300.46,383.61 L 302.86,381.20 L 305.27,381.20 L 307.67,378.80 L 310.07,378.80 L 312.48,376.40 L 317.28,376.40 L 322.09,371.59 L 324.49,371.59 L 326.90,369.19 L 329.30,369.19 L 331.70,366.78 L 334.11,366.78 L 338.91,361.98 L 341.32,361.98 L 343.72,359.57 L 346.12,359.57 L 350.93,354.77 L 353.33,354.77 L 358.14,349.96 L 379.77,371.59 L 382.17,371.59 L 386.98,376.40 L 389.38,376.40 L 396.59,383.61 L 399.00,383.61 L 401.40,386.01 L 403.80,386.01 L 406.21,388.41 L 408.61,388.41 L 411.01,390.82 L 413.42,390.82 L 415.82,393.22 L 418.22,393.22 L 420.63,395.62 L 423.03,395.62 L 425.43,398.03 L 430.24,398.03 L 432.64,400.43 L 437.45,400.43 L 439.85,402.83 L 444.66,402.83 L 447.06,405.24 L 449.47,405.24 L 449.47,402.83 L 432.64,386.01 L 430.24,386.01 L 427.84,383.61 L 427.84,381.20 L 411.01,364.38 L 411.01,361.98 L 399.00,349.96 L 399.00,347.56 L 391.79,340.35 L 391.79,337.94 L 389.38,335.54 L 389.38,333.14 L 386.98,330.73 L 386.98,328.33 L 389.38,325.93 L 391.79,325.93 L 408.61,309.10 L 411.01,309.10 L 413.42,311.51 L 415.82,311.51 L 420.63,316.31 L 425.43,316.31 L 425.43,311.51 L 427.84,309.10 L 427.84,304.30 L 430.24,301.90 L 430.24,297.09 L 432.64,294.69 L 432.64,289.88 L 435.05,287.48 L 435.05,282.67 L 437.45,280.27 L 437.45,275.46 L 439.85,273.06 L 439.85,268.25 L 442.26,265.85 L 442.26,261.04 L 432.64,261.04 L 430.24,263.44 L 425.43,263.44 L 423.03,265.85 L 418.22,265.85 L 415.82,268.25 L 411.01,268.25 L 408.61,270.65 L 403.80,270.65 L 401.40,273.06 L 396.59,273.06 L 394.19,275.46 L 389.38,275.46 L 386.98,277.86 L 382.17,277.86 L 379.77,280.27 L 377.37,280.27 L 377.37,282.67 L 382.17,287.48 L 384.58,287.48 L 386.98,289.88 L 370.16,306.70 L 367.75,306.70 L 360.54,299.49 L 360.54,297.09 L 353.33,289.88 L 353.33,287.48 L 355.74,285.07 L 360.54,285.07 L 362.95,282.67 L 362.95,275.46 L 360.54,273.06 L 362.95,270.65 L 365.35,270.65 L 367.75,268.25 L 370.16,268.25 L 372.56,265.85 L 374.96,265.85 L 391.79,249.02 L 391.79,246.62 L 396.59,241.81 L 403.80,241.81 L 403.80,237.01 L 406.21,234.60 L 411.01,234.60 L 411.01,227.39 L 413.42,224.99 L 418.22,224.99 L 420.63,222.59 L 420.63,215.38 L 423.03,212.97 L 430.24,212.97 L 430.24,205.76 L 432.64,203.36 L 435.05,205.76 L 439.85,200.96 L 439.85,196.15 L 442.26,193.75 L 444.66,193.75 L 447.06,191.34 L 447.06,184.13 L 449.47,181.73 L 454.27,181.73 L 454.27,179.33 L 456.68,176.92 L 454.27,174.52 L 456.68,172.12 L 459.08,172.12 L 461.48,169.71 L 461.48,164.91 L 459.08,162.50 L 461.48,160.10 L 463.89,160.10 L 466.29,157.70 L 466.29,150.49 L 468.69,148.08 L 468.69,145.68 L 471.10,143.28 L 468.69,140.87 L 468.69,136.07 L 471.10,133.66 L 471.10,128.86 L 468.69,126.45 L 461.48,126.45 L 461.48,133.66 L 463.89,136.07 L 461.48,138.47 L 461.48,140.87 L 459.08,143.28 L 461.48,145.68 L 461.48,148.08 L 456.68,152.89 L 456.68,157.70 L 459.08,160.10 L 456.68,162.50 L 454.27,162.50 L 454.27,164.91 L 451.87,167.31 L 454.27,169.71 L 451.87,172.12 L 447.06,172.12 L 447.06,181.73 L 444.66,184.13 L 439.85,184.13 L 437.45,186.54 L 437.45,188.94 L 439.85,191.34 L 437.45,193.75 L 432.64,193.75 L 430.24,196.15 L 430.24,200.96 L 427.84,203.36 L 423.03,203.36 L 420.63,205.76 L 420.63,210.57 L 423.03,212.97 L 420.63,215.38 L 413.42,215.38 L 411.01,217.78 L 411.01,222.59 L 408.61,224.99 L 403.80,224.99 L 401.40,222.59 L 401.40,220.18 L 403.80,217.78 L 403.80,179.33 L 401.40,176.92 L 401.40,169.71 L 399.00,167.31 L 399.00,164.91 L 396.59,162.50 L 396.59,160.10 L 391.79,155.29 L 391.79,152.89 L 374.96,136.07 L 372.56,136.07 L 370.16,133.66 L 367.75,133.66 L 365.35,131.26 L 362.95,131.26 L 360.54,128.86 L 355.74,128.86 L 353.33,126.45 L 254.80,126.45 L 254.80,128.86 L 259.60,133.66 L 262.01,133.66 L 269.22,140.87 L 271.62,140.87 L 274.02,143.28 L 274.02,145.68 L 281.23,152.89 L 281.23,155.29 L 283.64,157.70 L 283.64,160.10 L 286.04,162.50 L 286.04,164.91 L 288.44,164.91 L 290.85,167.31 L 341.32,167.31 L 358.14,184.13 L 358.14,188.94 L 360.54,191.34 L 360.54,208.17 L 358.14,210.57 L 358.14,215.38 L 355.74,217.78 L 355.74,220.18 L 343.72,232.20 L 341.32,232.20 L 336.51,237.01 L 331.70,237.01 L 329.30,239.41 L 295.65,239.41 L 293.25,241.81 L 276.43,241.81 L 276.43,246.62 L 281.23,251.43 L 281.23,253.83 L 288.44,261.04 L 288.44,263.44 L 295.65,270.65 L 295.65,273.06 L 302.86,280.27 L 302.86,282.67 L 310.07,289.88 L 310.07,292.28 L 314.88,297.09 L 314.88,299.49 L 317.28,301.90 L 314.88,304.30 L 307.67,304.30 L 305.27,306.70 L 305.27,309.10 L 302.86,311.51 L 295.65,311.51 L 293.25,313.91 L 293.25,318.72 L 290.85,321.12 L 288.44,321.12 L 286.04,318.72 L 286.04,313.91 L 288.44,311.51 L 288.44,301.90 L 286.04,299.49 L 286.04,289.88 L 283.64,287.48 L 283.64,282.67 L 281.23,280.27 L 281.23,277.86 L 278.83,275.46 L 278.83,273.06 L 276.43,270.65 L 276.43,268.25 L 269.22,261.04 L 269.22,258.64 L 266.81,256.23 L 264.41,256.23 L 259.60,251.43 L 259.60,249.02 L 271.62,237.01 L 271.62,234.60 L 276.43,229.80 L 276.43,224.99 L 278.83,222.59 L 278.83,215.38 L 281.23,212.97 L 281.23,188.94 L 278.83,186.54 L 278.83,179.33 L 276.43,176.92 L 276.43,172.12 L 274.02,169.71 L 274.02,167.31 L 271.62,164.91 L 271.62,162.50 L 269.22,160.10 L 269.22,157.70 L 262.01,150.49 L 262.01,148.08 L 254.80,140.87 L 252.40,140.87 L 247.59,136.07 L 245.19,136.07 L 242.78,133.66 L 240.38,133.66 L 237.98,131.26 L 235.57,131.26 L 233.17,128.86 L 228.36,128.86 L 225.96,126.45 Z M 45.71,378.80 L 48.11,376.40 L 50.52,378.80 L 48.11,381.20 Z M 314.88,304.30 L 317.28,301.90 L 319.69,304.30 L 317.28,306.70 Z M 343.72,277.86 L 346.12,275.46 L 348.53,275.46 L 350.93,277.86 L 350.93,280.27 L 348.53,282.67 Z M 153.86,265.85 L 156.26,263.44 L 158.67,265.85 L 156.26,268.25 Z M 165.88,251.43 L 168.28,253.83 L 168.28,256.23 L 158.67,265.85 L 156.26,263.44 L 156.26,261.04 Z M 165.88,251.43 L 168.28,249.02 L 170.68,251.43 L 168.28,253.83 Z M 168.28,249.02 L 170.68,246.62 L 173.09,249.02 L 170.68,251.43 Z M 408.61,224.99 L 411.01,222.59 L 413.42,224.99 L 411.01,227.39 Z M 144.25,169.71 L 146.65,167.31 L 218.75,167.31 L 221.15,169.71 L 223.56,169.71 L 235.57,181.73 L 235.57,186.54 L 237.98,188.94 L 237.98,208.17 L 235.57,210.57 L 235.57,215.38 L 223.56,227.39 L 221.15,227.39 L 218.75,229.80 L 213.94,229.80 L 211.54,232.20 L 187.51,232.20 L 182.70,237.01 L 182.70,239.41 L 173.09,249.02 L 170.68,246.62 L 170.68,244.22 L 177.89,237.01 L 177.89,232.20 L 175.49,229.80 L 146.65,229.80 L 144.25,227.39 Z M 401.40,88.00 L 396.59,92.81 L 394.19,90.40 L 386.98,90.40 L 384.58,92.81 L 382.17,90.40 L 377.37,90.40 L 372.56,95.21 L 370.16,92.81 L 367.75,92.81 L 365.35,95.21 L 355.74,95.21 L 353.33,97.61 L 346.12,97.61 L 343.72,100.02 L 338.91,100.02 L 334.11,104.82 L 331.70,102.42 L 329.30,102.42 L 324.49,107.23 L 322.09,104.82 L 317.28,109.63 L 310.07,109.63 L 307.67,112.03 L 302.86,112.03 L 302.86,114.44 L 300.46,116.84 L 298.06,114.44 L 295.65,114.44 L 293.25,116.84 L 293.25,121.65 L 298.06,121.65 L 300.46,119.24 L 307.67,119.24 L 307.67,116.84 L 310.07,114.44 L 312.48,116.84 L 314.88,116.84 L 319.69,112.03 L 322.09,114.44 L 326.90,109.63 L 334.11,109.63 L 336.51,107.23 L 343.72,107.23 L 343.72,104.82 L 346.12,102.42 L 348.53,104.82 L 353.33,104.82 L 353.33,102.42 L 355.74,100.02 L 358.14,102.42 L 362.95,102.42 L 362.95,100.02 L 365.35,97.61 L 367.75,100.02 L 372.56,100.02 L 374.96,97.61 L 377.37,100.02 L 382.17,100.02 L 384.58,97.61 L 386.98,97.61 L 389.38,100.02 L 391.79,100.02 L 396.59,95.21 L 401.40,100.02 L 403.80,100.02 L 408.61,95.21 L 413.42,100.02 L 415.82,100.02 L 420.63,95.21 L 423.03,97.61 L 423.03,100.02 L 425.43,100.02 L 427.84,102.42 L 430.24,102.42 L 435.05,97.61 L 437.45,100.02 L 437.45,104.82 L 439.85,107.23 L 439.85,109.63 L 444.66,114.44 L 454.27,114.44 L 456.68,112.03 L 459.08,114.44 L 459.08,121.65 L 466.29,121.65 L 468.69,119.24 L 468.69,116.84 L 463.89,112.03 L 461.48,112.03 L 459.08,109.63 L 459.08,107.23 L 461.48,104.82 L 461.48,102.42 L 459.08,100.02 L 459.08,97.61 L 454.27,92.81 L 451.87,92.81 L 449.47,90.40 L 447.06,90.40 L 444.66,92.81 L 442.26,92.81 L 437.45,97.61 L 435.05,95.21 L 435.05,92.81 L 432.64,90.40 L 430.24,90.40 L 427.84,88.00 L 425.43,90.40 L 423.03,90.40 L 420.63,92.81 L 415.82,88.00 L 413.42,88.00 L 408.61,92.81 L 403.80,88.00 Z M 456.68,112.03 L 459.08,109.63 L 461.48,112.03 L 459.08,114.44 Z" fill="url(#logo-grad)" fill-rule="evenodd" />
</svg>