<svg xmlns="http://www.w3.org/2000/svg" viewBox="0 0 512 512" width="100%" height="100%">
  <defs>
    <linearGradient id="logo-grad" x1="0%" y1="0%" x2="100%" y2="100%">
      <stop offset="0%" stop-color="#00b4d8" />
      <stop offset="100%" stop-color="#9d4edd" />
    </linearGradient>
  </defs>
  <path d="M 194.82,326.69 L 192.66,328.85 L 192.66,331.01 L 190.49,333.18 L 188.33,331.01 L 184.00,331.01 L 179.67,335.34 L 177.51,333.18 L 171.01,333.18 L 171.01,339.67 L 173.18,341.84 L 177.51,341.84 L 177.51,339.67 L 179.67,337.51 L 184.00,337.51 L 186.16,339.67 L 190.49,335.34 L 199.15,335.34 L 199.15,328.85 L 196.99,326.69 Z M 214.30,322.36 L 209.97,326.69 L 207.81,324.52 L 205.64,324.52 L 203.48,326.69 L 203.48,331.01 L 205.64,333.18 L 207.81,333.18 L 209.97,331.01 L 209.97,328.85 L 212.13,326.69 L 214.30,328.85 L 220.79,328.85 L 220.79,324.52 L 218.63,322.36 Z M 225.12,318.03 L 225.12,324.52 L 229.45,324.52 L 231.61,322.36 L 231.61,320.19 L 229.45,318.03 Z M 125.57,88.63 L 123.40,90.79 L 123.40,227.13 L 121.24,229.30 L 121.24,231.46 L 119.07,233.63 L 116.91,233.63 L 114.75,235.79 L 112.58,235.79 L 110.42,237.96 L 108.25,237.96 L 106.09,240.12 L 103.93,240.12 L 90.94,253.10 L 88.78,253.10 L 88.78,255.27 L 82.28,261.76 L 82.28,263.93 L 77.96,268.25 L 77.96,272.58 L 73.63,276.91 L 73.63,281.24 L 69.30,285.57 L 69.30,289.90 L 71.46,292.06 L 67.13,296.39 L 67.13,300.72 L 69.30,302.88 L 69.30,305.04 L 67.13,307.21 L 67.13,313.70 L 69.30,315.87 L 71.46,315.87 L 73.63,318.03 L 69.30,322.36 L 69.30,333.18 L 75.79,339.67 L 84.45,339.67 L 88.78,335.34 L 90.94,337.51 L 90.94,341.84 L 93.10,344.00 L 95.27,344.00 L 97.43,346.16 L 99.60,346.16 L 101.76,344.00 L 103.93,344.00 L 106.09,341.84 L 108.25,344.00 L 108.25,346.16 L 110.42,346.16 L 112.58,348.33 L 114.75,346.16 L 116.91,346.16 L 116.91,344.00 L 119.07,341.84 L 121.24,344.00 L 121.24,346.16 L 123.40,348.33 L 127.73,348.33 L 132.06,344.00 L 134.22,344.00 L 136.39,346.16 L 142.88,346.16 L 142.88,344.00 L 145.04,341.84 L 149.37,346.16 L 153.70,346.16 L 158.03,341.84 L 160.19,341.84 L 162.36,344.00 L 164.52,344.00 L 166.69,341.84 L 166.69,335.34 L 164.52,335.34 L 162.36,333.18 L 158.03,337.51 L 155.87,337.51 L 153.70,335.34 L 149.37,335.34 L 145.04,339.67 L 142.88,337.51 L 140.72,337.51 L 138.55,335.34 L 132.06,341.84 L 129.90,339.67 L 129.90,337.51 L 121.24,337.51 L 121.24,339.67 L 119.07,341.84 L 116.91,339.67 L 116.91,337.51 L 114.75,335.34 L 110.42,335.34 L 106.09,339.67 L 103.93,337.51 L 103.93,335.34 L 101.76,333.18 L 93.10,333.18 L 90.94,331.01 L 90.94,322.36 L 86.61,318.03 L 84.45,318.03 L 82.28,315.87 L 77.96,315.87 L 75.79,313.70 L 77.96,311.54 L 77.96,309.37 L 73.63,305.04 L 73.63,302.88 L 77.96,298.55 L 77.96,296.39 L 75.79,294.22 L 75.79,292.06 L 77.96,289.90 L 77.96,283.40 L 82.28,279.07 L 82.28,274.75 L 84.45,272.58 L 84.45,268.25 L 99.60,253.10 L 99.60,250.94 L 103.93,246.61 L 106.09,246.61 L 112.58,240.12 L 114.75,240.12 L 121.24,233.63 L 123.40,235.79 L 123.40,263.93 L 127.73,263.93 L 132.06,259.60 L 132.06,257.43 L 145.04,244.45 L 145.04,242.28 L 158.03,229.30 L 158.03,227.13 L 171.01,214.15 L 173.18,216.31 L 173.18,220.64 L 235.94,220.64 L 238.10,222.81 L 240.27,222.81 L 251.09,233.63 L 251.09,235.79 L 253.25,237.96 L 253.25,255.27 L 251.09,257.43 L 251.09,259.60 L 248.93,261.76 L 248.93,263.93 L 238.10,274.75 L 235.94,274.75 L 233.78,276.91 L 229.45,276.91 L 227.28,279.07 L 125.57,279.07 L 123.40,281.24 L 123.40,311.54 L 125.57,313.70 L 127.73,313.70 L 129.90,315.87 L 132.06,313.70 L 134.22,315.87 L 196.99,315.87 L 199.15,313.70 L 203.48,313.70 L 205.64,315.87 L 209.97,315.87 L 212.13,313.70 L 238.10,313.70 L 240.27,311.54 L 246.76,311.54 L 248.93,309.37 L 251.09,309.37 L 253.25,307.21 L 257.58,307.21 L 259.75,305.04 L 261.91,305.04 L 266.24,300.72 L 268.40,300.72 L 281.39,287.73 L 281.39,285.57 L 283.55,283.40 L 283.55,281.24 L 285.72,279.07 L 285.72,276.91 L 287.88,274.75 L 287.88,272.58 L 290.04,270.42 L 292.21,272.58 L 294.37,270.42 L 294.37,268.25 L 298.70,263.93 L 303.03,263.93 L 305.19,261.76 L 305.19,257.43 L 307.36,255.27 L 309.52,257.43 L 316.01,257.43 L 316.01,255.27 L 318.18,253.10 L 318.18,250.94 L 320.34,248.78 L 324.67,253.10 L 324.67,255.27 L 331.16,261.76 L 331.16,263.93 L 335.49,268.25 L 335.49,270.42 L 337.66,272.58 L 337.66,274.75 L 335.49,276.91 L 333.33,276.91 L 326.84,283.40 L 324.67,283.40 L 320.34,287.73 L 318.18,287.73 L 313.85,292.06 L 311.69,292.06 L 309.52,294.22 L 307.36,294.22 L 303.03,298.55 L 300.87,298.55 L 296.54,302.88 L 294.37,302.88 L 292.21,305.04 L 290.04,305.04 L 287.88,307.21 L 285.72,307.21 L 283.55,309.37 L 281.39,309.37 L 279.22,311.54 L 277.06,311.54 L 274.90,313.70 L 272.73,313.70 L 270.57,315.87 L 268.40,315.87 L 266.24,318.03 L 264.07,318.03 L 261.91,320.19 L 257.58,320.19 L 255.42,322.36 L 253.25,322.36 L 251.09,324.52 L 248.93,324.52 L 246.76,326.69 L 242.43,326.69 L 240.27,328.85 L 238.10,328.85 L 235.94,331.01 L 231.61,331.01 L 229.45,333.18 L 225.12,333.18 L 222.96,335.34 L 218.63,335.34 L 216.46,337.51 L 212.13,337.51 L 209.97,339.67 L 203.48,339.67 L 201.31,341.84 L 196.99,341.84 L 194.82,344.00 L 188.33,344.00 L 186.16,346.16 L 179.67,346.16 L 177.51,348.33 L 168.85,348.33 L 166.69,350.49 L 160.19,350.49 L 158.03,352.66 L 147.21,352.66 L 145.04,354.82 L 140.72,354.82 L 138.55,356.99 L 147.21,356.99 L 149.37,354.82 L 173.18,354.82 L 175.34,352.66 L 186.16,352.66 L 188.33,350.49 L 194.82,350.49 L 196.99,348.33 L 212.13,348.33 L 214.30,346.16 L 220.79,346.16 L 222.96,344.00 L 227.28,344.00 L 229.45,341.84 L 238.10,341.84 L 240.27,339.67 L 246.76,339.67 L 248.93,337.51 L 253.25,337.51 L 255.42,335.34 L 261.91,335.34 L 264.07,333.18 L 268.40,333.18 L 270.57,331.01 L 274.90,331.01 L 277.06,328.85 L 281.39,328.85 L 283.55,326.69 L 287.88,326.69 L 290.04,324.52 L 292.21,324.52 L 294.37,322.36 L 298.70,322.36 L 300.87,320.19 L 303.03,320.19 L 305.19,318.03 L 307.36,318.03 L 309.52,315.87 L 311.69,315.87 L 313.85,313.70 L 318.18,313.70 L 322.51,309.37 L 324.67,309.37 L 326.84,307.21 L 329.00,307.21 L 331.16,305.04 L 333.33,305.04 L 337.66,300.72 L 339.82,300.72 L 341.99,298.55 L 344.15,298.55 L 348.48,294.22 L 350.64,294.22 L 354.97,289.90 L 374.45,309.37 L 376.61,309.37 L 380.94,313.70 L 383.10,313.70 L 389.60,320.19 L 391.76,320.19 L 393.93,322.36 L 396.09,322.36 L 398.25,324.52 L 400.42,324.52 L 402.58,326.69 L 404.75,326.69 L 406.91,328.85 L 409.07,328.85 L 411.24,331.01 L 413.40,331.01 L 415.57,333.18 L 419.90,333.18 L 422.06,335.34 L 426.39,335.34 L 428.55,337.51 L 432.88,337.51 L 435.04,339.67 L 437.21,339.67 L 437.21,337.51 L 422.06,322.36 L 419.90,322.36 L 417.73,320.19 L 417.73,318.03 L 402.58,302.88 L 402.58,300.72 L 391.76,289.90 L 391.76,287.73 L 385.27,281.24 L 385.27,279.07 L 383.10,276.91 L 383.10,274.75 L 380.94,272.58 L 380.94,270.42 L 383.10,268.25 L 385.27,268.25 L 400.42,253.10 L 402.58,253.10 L 404.75,255.27 L 406.91,255.27 L 411.24,259.60 L 415.57,259.60 L 415.57,255.27 L 417.73,253.10 L 417.73,248.78 L 419.90,246.61 L 419.90,242.28 L 422.06,240.12 L 422.06,235.79 L 424.22,233.63 L 424.22,229.30 L 426.39,227.13 L 426.39,222.81 L 428.55,220.64 L 428.55,216.31 L 430.72,214.15 L 430.72,209.82 L 422.06,209.82 L 419.90,211.99 L 415.57,211.99 L 413.40,214.15 L 409.07,214.15 L 406.91,216.31 L 402.58,216.31 L 400.42,218.48 L 396.09,218.48 L 393.93,220.64 L 389.60,220.64 L 387.43,222.81 L 383.10,222.81 L 380.94,224.97 L 376.61,224.97 L 374.45,227.13 L 372.28,227.13 L 372.28,229.30 L 376.61,233.63 L 378.78,233.63 L 380.94,235.79 L 365.79,250.94 L 363.63,250.94 L 357.13,244.45 L 357.13,242.28 L 350.64,235.79 L 350.64,233.63 L 352.81,231.46 L 357.13,231.46 L 359.30,229.30 L 359.30,222.81 L 357.13,220.64 L 359.30,218.48 L 361.46,218.48 L 363.63,216.31 L 365.79,216.31 L 367.96,214.15 L 370.12,214.15 L 385.27,199.00 L 385.27,196.84 L 389.60,192.51 L 396.09,192.51 L 396.09,188.18 L 398.25,186.01 L 402.58,186.01 L 402.58,179.52 L 404.75,177.36 L 409.07,177.36 L 411.24,175.19 L 411.24,168.70 L 413.40,166.54 L 419.90,166.54 L 419.90,160.04 L 422.06,157.88 L 424.22,160.04 L 428.55,155.72 L 428.55,151.39 L 430.72,149.22 L 432.88,149.22 L 435.04,147.06 L 435.04,140.57 L 437.21,138.40 L 441.54,138.40 L 441.54,136.24 L 443.70,134.07 L 441.54,131.91 L 443.70,129.75 L 445.87,129.75 L 448.03,127.58 L 448.03,123.25 L 445.87,121.09 L 448.03,118.93 L 450.19,118.93 L 452.36,116.76 L 452.36,110.27 L 454.52,108.10 L 454.52,105.94 L 456.69,103.78 L 454.52,101.61 L 454.52,97.28 L 456.69,95.12 L 456.69,90.79 L 454.52,88.63 L 448.03,88.63 L 448.03,95.12 L 450.19,97.28 L 448.03,99.45 L 448.03,101.61 L 445.87,103.78 L 448.03,105.94 L 448.03,108.10 L 443.70,112.43 L 443.70,116.76 L 445.87,118.93 L 443.70,121.09 L 441.54,121.09 L 441.54,123.25 L 439.37,125.42 L 441.54,127.58 L 439.37,129.75 L 435.04,129.75 L 435.04,138.40 L 432.88,140.57 L 428.55,140.57 L 426.39,142.73 L 426.39,144.90 L 428.55,147.06 L 426.39,149.22 L 422.06,149.22 L 419.90,151.39 L 419.90,155.72 L 417.73,157.88 L 413.40,157.88 L 411.24,160.04 L 411.24,164.37 L 413.40,166.54 L 411.24,168.70 L 404.75,168.70 L 402.58,170.87 L 402.58,175.19 L 400.42,177.36 L 396.09,177.36 L 393.93,175.19 L 393.93,173.03 L 396.09,170.87 L 396.09,136.24 L 393.93,134.07 L 393.93,127.58 L 391.76,125.42 L 391.76,123.25 L 389.60,121.09 L 389.60,118.93 L 385.27,114.60 L 385.27,112.43 L 370.12,97.28 L 367.96,97.28 L 365.79,95.12 L 363.63,95.12 L 361.46,92.96 L 359.30,92.96 L 357.13,90.79 L 352.81,90.79 L 350.64,88.63 L 261.91,88.63 L 261.91,90.79 L 266.24,95.12 L 268.40,95.12 L 274.90,101.61 L 277.06,101.61 L 279.22,103.78 L 279.22,105.94 L 285.72,112.43 L 285.72,114.60 L 287.88,116.76 L 287.88,118.93 L 290.04,121.09 L 290.04,123.25 L 292.21,123.25 L 294.37,125.42 L 339.82,125.42 L 354.97,140.57 L 354.97,144.90 L 357.13,147.06 L 357.13,162.21 L 354.97,164.37 L 354.97,168.70 L 352.81,170.87 L 352.81,173.03 L 341.99,183.85 L 339.82,183.85 L 335.49,188.18 L 331.16,188.18 L 329.00,190.34 L 298.70,190.34 L 296.54,192.51 L 281.39,192.51 L 281.39,196.84 L 285.72,201.16 L 285.72,203.33 L 292.21,209.82 L 292.21,211.99 L 298.70,218.48 L 298.70,220.64 L 305.19,227.13 L 305.19,229.30 L 311.69,235.79 L 311.69,237.96 L 316.01,242.28 L 316.01,244.45 L 318.18,246.61 L 316.01,248.78 L 309.52,248.78 L 307.36,250.94 L 307.36,253.10 L 305.19,255.27 L 298.70,255.27 L 296.54,257.43 L 296.54,261.76 L 294.37,263.93 L 292.21,263.93 L 290.04,261.76 L 290.04,257.43 L 292.21,255.27 L 292.21,246.61 L 290.04,244.45 L 290.04,235.79 L 287.88,233.63 L 287.88,229.30 L 285.72,227.13 L 285.72,224.97 L 283.55,222.81 L 283.55,220.64 L 281.39,218.48 L 281.39,216.31 L 274.90,209.82 L 274.90,207.66 L 272.73,205.49 L 270.57,205.49 L 266.24,201.16 L 266.24,199.00 L 277.06,188.18 L 277.06,186.01 L 281.39,181.69 L 281.39,177.36 L 283.55,175.19 L 283.55,168.70 L 285.72,166.54 L 285.72,144.90 L 283.55,142.73 L 283.55,136.24 L 281.39,134.07 L 281.39,129.75 L 279.22,127.58 L 279.22,125.42 L 277.06,123.25 L 277.06,121.09 L 274.90,118.93 L 274.90,116.76 L 268.40,110.27 L 268.40,108.10 L 261.91,101.61 L 259.75,101.61 L 255.42,97.28 L 253.25,97.28 L 251.09,95.12 L 248.93,95.12 L 246.76,92.96 L 244.60,92.96 L 242.43,90.79 L 238.10,90.79 L 235.94,88.63 Z M 73.63,315.87 L 75.79,313.70 L 77.96,315.87 L 75.79,318.03 Z M 316.01,248.78 L 318.18,246.61 L 320.34,248.78 L 318.18,250.94 Z M 341.99,224.97 L 344.15,222.81 L 346.31,222.81 L 348.48,224.97 L 348.48,227.13 L 346.31,229.30 Z M 171.01,214.15 L 173.18,211.99 L 175.34,214.15 L 173.18,216.31 Z M 181.84,201.16 L 184.00,203.33 L 184.00,205.49 L 175.34,214.15 L 173.18,211.99 L 173.18,209.82 Z M 181.84,201.16 L 184.00,199.00 L 186.16,201.16 L 184.00,203.33 Z M 184.00,199.00 L 186.16,196.84 L 188.33,199.00 L 186.16,201.16 Z M 400.42,177.36 L 402.58,175.19 L 404.75,177.36 L 402.58,179.52 Z M 162.36,127.58 L 164.52,125.42 L 229.45,125.42 L 231.61,127.58 L 233.78,127.58 L 244.60,138.40 L 244.60,142.73 L 246.76,144.90 L 246.76,162.21 L 244.60,164.37 L 244.60,168.70 L 233.78,179.52 L 231.61,179.52 L 229.45,181.69 L 225.12,181.69 L 222.96,183.85 L 201.31,183.85 L 196.99,188.18 L 196.99,190.34 L 188.33,199.00 L 186.16,196.84 L 186.16,194.67 L 192.66,188.18 L 192.66,183.85 L 190.49,181.69 L 164.52,181.69 L 162.36,179.52 Z M 393.93,54.00 L 389.60,58.33 L 387.43,56.16 L 380.94,56.16 L 378.78,58.33 L 376.61,56.16 L 372.28,56.16 L 367.96,60.49 L 365.79,58.33 L 363.63,58.33 L 361.46,60.49 L 352.81,60.49 L 350.64,62.66 L 344.15,62.66 L 341.99,64.82 L 337.66,64.82 L 333.33,69.15 L 331.16,66.99 L 329.00,66.99 L 324.67,71.31 L 322.51,69.15 L 318.18,73.48 L 311.69,73.48 L 309.52,75.64 L 305.19,75.64 L 305.19,77.81 L 303.03,79.97 L 300.87,77.81 L 298.70,77.81 L 296.54,79.97 L 296.54,84.30 L 300.87,84.30 L 303.03,82.13 L 309.52,82.13 L 309.52,79.97 L 311.69,77.81 L 313.85,79.97 L 316.01,79.97 L 320.34,75.64 L 322.51,77.81 L 326.84,73.48 L 333.33,73.48 L 335.49,71.31 L 341.99,71.31 L 341.99,69.15 L 344.15,66.99 L 346.31,69.15 L 350.64,69.15 L 350.64,66.99 L 352.81,64.82 L 354.97,66.99 L 359.30,66.99 L 359.30,64.82 L 361.46,62.66 L 363.63,64.82 L 367.96,64.82 L 370.12,62.66 L 372.28,64.82 L 376.61,64.82 L 378.78,62.66 L 380.94,62.66 L 383.10,64.82 L 385.27,64.82 L 389.60,60.49 L 393.93,64.82 L 396.09,64.82 L 400.42,60.49 L 404.75,64.82 L 406.91,64.82 L 411.24,60.49 L 413.40,62.66 L 413.40,64.82 L 415.57,64.82 L 417.73,66.99 L 419.90,66.99 L 424.22,62.66 L 426.39,64.82 L 426.39,69.15 L 428.55,71.31 L 428.55,73.48 L 432.88,77.81 L 441.54,77.81 L 443.70,75.64 L 445.87,77.81 L 445.87,84.30 L 452.36,84.30 L 454.52,82.13 L 454.52,79.97 L 450.19,75.64 L 448.03,75.64 L 445.87,73.48 L 445.87,71.31 L 448.03,69.15 L 448.03,66.99 L 445.87,64.82 L 445.87,62.66 L 441.54,58.33 L 439.37,58.33 L 437.21,56.16 L 435.04,56.16 L 432.88,58.33 L 430.72,58.33 L 426.39,62.66 L 424.22,60.49 L 424.22,58.33 L 422.06,56.16 L 419.90,56.16 L 417.73,54.00 L 415.57,56.16 L 413.40,56.16 L 411.24,58.33 L 406.91,54.00 L 404.75,54.00 L 400.42,58.33 L 396.09,54.00 Z M 443.70,75.64 L 445.87,73.48 L 448.03,75.64 L 445.87,77.81 Z" fill="url(#logo-grad)" fill-rule="evenodd" />
  <path d="M 445.87,378.63 L 443.70,380.79 L 443.70,382.96 L 441.54,385.12 L 441.54,387.28 L 437.21,391.61 L 437.21,393.78 L 435.04,395.94 L 435.04,398.10 L 432.88,400.27 L 432.88,402.43 L 430.72,404.60 L 430.72,406.76 L 426.39,411.09 L 426.39,415.42 L 435.04,415.42 L 435.04,413.25 L 437.21,411.09 L 437.21,408.93 L 439.37,406.76 L 439.37,404.60 L 443.70,400.27 L 443.70,398.10 L 445.87,395.94 L 445.87,391.61 L 448.03,389.45 L 454.52,395.94 L 454.52,398.10 L 456.69,400.27 L 456.69,402.43 L 458.85,404.60 L 458.85,406.76 L 461.01,408.93 L 461.01,411.09 L 463.18,413.25 L 463.18,415.42 L 471.84,415.42 L 471.84,413.25 L 469.67,411.09 L 469.67,408.93 L 467.51,406.76 L 467.51,404.60 L 465.34,402.43 L 465.34,400.27 L 463.18,398.10 L 463.18,395.94 L 458.85,391.61 L 458.85,389.45 L 456.69,387.28 L 456.69,385.12 L 454.52,382.96 L 454.52,380.79 L 452.36,378.63 Z M 365.79,378.63 L 365.79,380.79 L 367.96,382.96 L 367.96,385.12 L 370.12,387.28 L 370.12,389.45 L 372.28,391.61 L 372.28,393.78 L 374.45,395.94 L 374.45,398.10 L 376.61,400.27 L 376.61,402.43 L 378.78,404.60 L 378.78,406.76 L 380.94,408.93 L 380.94,411.09 L 383.10,413.25 L 383.10,415.42 L 391.76,415.42 L 393.93,413.25 L 393.93,411.09 L 398.25,406.76 L 398.25,402.43 L 402.58,398.10 L 402.58,395.94 L 404.75,393.78 L 404.75,391.61 L 406.91,389.45 L 406.91,387.28 L 409.07,385.12 L 409.07,382.96 L 411.24,380.79 L 411.24,378.63 L 402.58,378.63 L 402.58,380.79 L 398.25,385.12 L 398.25,387.28 L 396.09,389.45 L 396.09,393.78 L 391.76,398.10 L 391.76,400.27 L 387.43,404.60 L 385.27,402.43 L 385.27,398.10 L 383.10,395.94 L 383.10,393.78 L 378.78,389.45 L 378.78,387.28 L 376.61,385.12 L 376.61,380.79 L 374.45,378.63 Z M 313.85,378.63 L 309.52,382.96 L 307.36,382.96 L 307.36,385.12 L 303.03,389.45 L 303.03,393.78 L 300.87,395.94 L 300.87,400.27 L 303.03,402.43 L 303.03,404.60 L 305.19,406.76 L 305.19,408.93 L 309.52,413.25 L 311.69,413.25 L 313.85,415.42 L 335.49,415.42 L 344.15,406.76 L 344.15,402.43 L 346.31,400.27 L 346.31,393.78 L 344.15,391.61 L 344.15,389.45 L 341.99,387.28 L 341.99,385.12 L 337.66,380.79 L 335.49,380.79 L 333.33,378.63 Z M 318.18,387.28 L 320.34,385.12 L 326.84,385.12 L 329.00,387.28 L 333.33,387.28 L 335.49,389.45 L 335.49,391.61 L 337.66,393.78 L 337.66,400.27 L 335.49,402.43 L 335.49,404.60 L 333.33,406.76 L 331.16,406.76 L 329.00,408.93 L 318.18,408.93 L 311.69,402.43 L 311.69,400.27 L 309.52,398.10 L 311.69,395.94 L 311.69,391.61 L 316.01,387.28 Z M 233.78,378.63 L 233.78,415.42 L 242.43,415.42 L 242.43,393.78 L 244.60,391.61 L 268.40,415.42 L 277.06,415.42 L 274.90,413.25 L 274.90,378.63 L 268.40,378.63 L 268.40,400.27 L 266.24,402.43 L 246.76,382.96 L 246.76,380.79 L 244.60,380.79 L 242.43,378.63 Z M 184.00,378.63 L 181.84,380.79 L 181.84,382.96 L 179.67,385.12 L 179.67,387.28 L 177.51,389.45 L 177.51,391.61 L 173.18,395.94 L 173.18,398.10 L 171.01,400.27 L 171.01,402.43 L 168.85,404.60 L 168.85,406.76 L 166.69,408.93 L 166.69,411.09 L 164.52,413.25 L 164.52,415.42 L 173.18,415.42 L 173.18,413.25 L 175.34,411.09 L 175.34,408.93 L 179.67,404.60 L 179.67,402.43 L 181.84,400.27 L 181.84,398.10 L 184.00,395.94 L 184.00,393.78 L 188.33,389.45 L 192.66,393.78 L 192.66,398.10 L 196.99,402.43 L 196.99,404.60 L 199.15,406.76 L 199.15,408.93 L 201.31,411.09 L 201.31,413.25 L 203.48,415.42 L 212.13,415.42 L 212.13,413.25 L 209.97,411.09 L 209.97,408.93 L 205.64,404.60 L 205.64,402.43 L 203.48,400.27 L 203.48,398.10 L 201.31,395.94 L 201.31,393.78 L 196.99,389.45 L 196.99,387.28 L 194.82,385.12 L 194.82,380.79 L 192.66,378.63 Z M 99.60,378.63 L 99.60,415.42 L 108.25,415.42 L 108.25,402.43 L 110.42,400.27 L 129.90,400.27 L 132.06,402.43 L 132.06,415.42 L 140.72,415.42 L 140.72,378.63 L 134.22,378.63 L 132.06,380.79 L 132.06,389.45 L 129.90,391.61 L 110.42,391.61 L 108.25,389.45 L 108.25,380.79 L 106.09,378.63 Z M 39.00,378.63 L 39.00,415.42 L 71.46,415.42 L 77.96,408.93 L 77.96,400.27 L 73.63,395.94 L 75.79,393.78 L 75.79,391.61 L 77.96,389.45 L 77.96,387.28 L 73.63,382.96 L 73.63,380.79 L 71.46,380.79 L 69.30,378.63 Z M 47.66,402.43 L 49.82,400.27 L 67.13,400.27 L 69.30,402.43 L 69.30,404.60 L 64.97,408.93 L 49.82,408.93 L 47.66,406.76 Z M 47.66,387.28 L 49.82,385.12 L 60.64,385.12 L 62.81,387.28 L 67.13,387.28 L 69.30,389.45 L 64.97,393.78 L 49.82,393.78 L 47.66,391.61 Z" fill="#ffffff" fill-rule="evenodd" />
  <path d="M 435.04,437.06 L 435.04,439.22 L 441.54,445.72 L 441.54,454.37 L 443.70,456.54 L 445.87,456.54 L 445.87,447.88 L 450.19,443.55 L 450.19,441.39 L 452.36,439.22 L 452.36,437.06 L 448.03,437.06 L 445.87,439.22 L 443.70,439.22 L 441.54,437.06 Z M 422.06,437.06 L 422.06,439.22 L 419.90,441.39 L 419.90,445.72 L 417.73,447.88 L 417.73,450.04 L 415.57,452.21 L 415.57,454.37 L 417.73,456.54 L 419.90,456.54 L 424.22,452.21 L 426.39,452.21 L 428.55,454.37 L 428.55,456.54 L 432.88,456.54 L 432.88,450.04 L 430.72,447.88 L 430.72,443.55 L 428.55,441.39 L 428.55,439.22 L 426.39,437.06 Z M 396.09,437.06 L 396.09,454.37 L 398.25,456.54 L 404.75,456.54 L 406.91,454.37 L 409.07,454.37 L 409.07,452.21 L 413.40,447.88 L 413.40,445.72 L 411.24,443.55 L 411.24,439.22 L 409.07,439.22 L 406.91,437.06 Z M 367.96,437.06 L 367.96,441.39 L 372.28,445.72 L 372.28,454.37 L 374.45,456.54 L 376.61,456.54 L 378.78,454.37 L 378.78,445.72 L 383.10,441.39 L 383.10,437.06 L 378.78,437.06 L 376.61,439.22 L 374.45,439.22 L 372.28,437.06 Z M 348.48,437.06 L 348.48,454.37 L 350.64,456.54 L 352.81,456.54 L 354.97,454.37 L 357.13,454.37 L 359.30,456.54 L 363.63,456.54 L 363.63,452.21 L 361.46,450.04 L 361.46,447.88 L 363.63,445.72 L 363.63,439.22 L 361.46,439.22 L 359.30,437.06 Z M 329.00,437.06 L 329.00,454.37 L 331.16,456.54 L 341.99,456.54 L 341.99,441.39 L 344.15,439.22 L 341.99,437.06 Z M 307.36,437.06 L 307.36,439.22 L 309.52,441.39 L 309.52,443.55 L 311.69,445.72 L 311.69,450.04 L 313.85,452.21 L 313.85,456.54 L 318.18,456.54 L 320.34,454.37 L 320.34,450.04 L 322.51,447.88 L 322.51,443.55 L 324.67,441.39 L 324.67,437.06 L 320.34,437.06 L 320.34,439.22 L 316.01,443.55 L 313.85,441.39 L 313.85,437.06 Z M 290.04,437.06 L 290.04,456.54 L 303.03,456.54 L 303.03,452.21 L 300.87,450.04 L 300.87,443.55 L 303.03,441.39 L 303.03,437.06 Z M 259.75,437.06 L 259.75,454.37 L 261.91,456.54 L 264.07,456.54 L 266.24,454.37 L 268.40,454.37 L 270.57,456.54 L 274.90,456.54 L 274.90,452.21 L 272.73,450.04 L 274.90,447.88 L 274.90,439.22 L 272.73,437.06 Z M 242.43,437.06 L 240.27,439.22 L 240.27,454.37 L 242.43,456.54 L 253.25,456.54 L 253.25,454.37 L 255.42,452.21 L 253.25,450.04 L 253.25,437.06 Z M 203.48,437.06 L 203.48,441.39 L 205.64,441.39 L 207.81,443.55 L 207.81,456.54 L 212.13,456.54 L 212.13,443.55 L 214.30,441.39 L 216.46,441.39 L 218.63,439.22 L 220.79,441.39 L 222.96,441.39 L 225.12,443.55 L 225.12,454.37 L 227.28,456.54 L 229.45,456.54 L 231.61,454.37 L 231.61,443.55 L 233.78,441.39 L 235.94,441.39 L 235.94,437.06 L 220.79,437.06 L 218.63,439.22 L 216.46,437.06 Z M 184.00,437.06 L 184.00,454.37 L 186.16,456.54 L 196.99,456.54 L 196.99,452.21 L 194.82,450.04 L 196.99,447.88 L 196.99,441.39 L 199.15,439.22 L 196.99,437.06 Z M 164.52,437.06 L 164.52,456.54 L 173.18,456.54 L 177.51,452.21 L 177.51,439.22 L 175.34,437.06 Z M 132.06,437.06 L 132.06,454.37 L 134.22,456.54 L 140.72,456.54 L 142.88,454.37 L 145.04,454.37 L 147.21,452.21 L 147.21,450.04 L 149.37,447.88 L 149.37,441.39 L 147.21,439.22 L 145.04,439.22 L 142.88,437.06 Z M 114.75,437.06 L 112.58,439.22 L 114.75,441.39 L 112.58,443.55 L 112.58,452.21 L 114.75,454.37 L 114.75,456.54 L 125.57,456.54 L 125.57,450.04 L 121.24,450.04 L 119.07,447.88 L 119.07,437.06 Z M 101.76,437.06 L 101.76,454.37 L 103.93,456.54 L 106.09,456.54 L 108.25,454.37 L 108.25,439.22 L 106.09,437.06 Z M 80.12,437.06 L 80.12,450.04 L 82.28,452.21 L 82.28,454.37 L 84.45,454.37 L 86.61,456.54 L 90.94,456.54 L 95.27,452.21 L 95.27,437.06 L 90.94,437.06 L 90.94,447.88 L 88.78,450.04 L 86.61,450.04 L 84.45,447.88 L 84.45,437.06 Z M 60.64,437.06 L 60.64,456.54 L 69.30,456.54 L 71.46,454.37 L 73.63,454.37 L 73.63,452.21 L 75.79,450.04 L 73.63,447.88 L 73.63,439.22 L 71.46,437.06 Z" fill="url(#logo-grad)" fill-rule="evenodd" />
</svg>